<svg width="45" height="63" viewBox="0 0 45 63" fill="none" xmlns="http://www.w3.org/2000/svg">
<path opacity="0.8" d="M12.75 24.72V13.5C12.75 9.36 16.11 6 20.25 6C24.39 6 27.75 9.36 27.75 13.5V24.72C31.38 22.29 33.75 18.18 33.75 13.5C33.75 6.03 27.72 0 20.25 0C12.78 0 6.75 6.03 6.75 13.5C6.75 18.18 9.12 22.29 12.75 24.72ZM42.27 38.61L28.65 31.83C28.14 31.62 27.6 31.5 27.03 31.5H24.75V13.5C24.75 11.01 22.74 9 20.25 9C17.76 9 15.75 11.01 15.75 13.5V45.72C4.95 43.44 5.13 43.47 4.74 43.47C3.81 43.47 2.97 43.86 2.37 44.46L0 46.86L14.82 61.68C15.63 62.49 16.77 63 18 63H38.37C40.62 63 42.36 61.35 42.69 59.16L44.94 43.35C44.97 43.14 45 42.93 45 42.75C45 40.89 43.86 39.27 42.27 38.61Z" fill="white" fill-opacity="0.8"/>
</svg>
