<svg width="2660" height="952" viewBox="0 0 2660 952" fill="none" xmlns="http://www.w3.org/2000/svg">
<path d="M2659.5 11.7524H0V951.17H2659.5V11.7524Z" fill="white"/>
<path d="M446 23.203C487.799 19.7884 529.767 12.9099 571.737 12.9099C598.417 12.9099 625.056 15.8508 651.684 15.8508C669.579 15.8508 687.474 15.8508 705.368 15.8508C727.328 15.8508 749.227 19.1902 771.105 17.4029C779.385 16.7265 787.724 18.018 796 17.2395C804.71 16.4202 812.931 15.5055 821.684 16.9945C828.205 18.1036 834.976 15.5476 841.474 14.7071C855.441 12.9004 869.422 14.3803 883.421 14.3803C893.123 14.3803 902.825 14.3803 912.526 14.3803C928.452 14.3803 945.127 12.2602 960.947 15.1155C972.051 17.1196 983.393 18.7917 994.526 18.7917C1001.05 18.7917 1007.95 17.758 1014.42 18.8734C1026.25 20.9142 1038.27 19.8927 1050.21 21.4058C1066.42 23.4601 1083.82 26.3352 1100.11 24.5918C1104.61 24.1092 1109.04 23.4822 1113.58 23.1213C1121.17 22.5175 1128.06 16.1122 1135.47 15.8508C1140.21 15.6838 1144.43 12.4404 1149.16 11.7662C1158.4 10.4486 1166.46 14.3787 1175.42 15.7691C1184.61 17.1956 1194.31 15.8508 1203.53 15.8508C1216.78 15.8508 1229.96 17.0367 1243.16 17.3212C1260.08 17.686 1276.9 20.8024 1293.68 21.7326C1299.94 22.0795 1306.07 23.203 1312.37 23.203C1316.19 23.203 1322.14 21.2636 1325.68 23.5298C1326.32 23.9379 1334.69 20.5352 1336.21 20.2621C1349.63 17.8529 1362.7 18.7917 1376.16 18.7917C1385.61 18.7917 1395.07 18.7917 1404.53 18.7917C1429.57 18.7917 1454.82 17.8932 1479.79 20.5889C1492.91 22.0055 1505.93 21.8833 1519.05 21.0791C1539 19.8571 1559.1 23.3628 1579.05 21.7326C1589.58 20.8729 1599.87 21.2281 1610.63 21.8143C1625.97 22.6498 1642.21 23.8747 1657.16 28.7581C1666.43 31.7864 1676.66 33.4962 1686.21 33.4962C1692.68 33.4962 1699.87 33.7282 1706 30.5553" stroke="white" stroke-width="11.5" stroke-linecap="round"/>
<path d="M1076.07 38.4599C1117.87 33.4987 1159.82 24.3163 1201.8 23.5099C1228.48 22.9973 1255.14 26.0667 1281.78 25.555C1299.67 25.2112 1317.57 24.8674 1335.47 24.5236C1357.44 24.1017 1379.36 27.7473 1401.23 25.1506C1409.51 24.1678 1417.86 25.5803 1426.13 24.4733C1434.84 23.3082 1443.06 22.0365 1451.82 23.6814C1458.35 24.9068 1465.11 21.6642 1471.6 20.5159C1485.57 18.0475 1499.56 19.581 1513.56 19.312C1523.26 19.1256 1532.97 18.9392 1542.67 18.7528C1558.6 18.4468 1575.27 15.5448 1591.11 18.7177C1602.22 20.9447 1613.57 22.7629 1624.71 22.549C1631.24 22.4236 1638.14 21.0323 1644.61 22.2663C1656.45 24.5241 1668.47 23.0493 1680.42 24.6624C1696.64 26.8524 1714.06 30.0192 1730.34 27.5834C1734.85 26.909 1739.28 26.0605 1743.81 25.5339C1751.39 24.6528 1758.27 16.7205 1765.68 16.2598C1770.41 15.9655 1774.62 11.9349 1779.35 11.023C1788.59 9.24104 1796.67 13.8718 1805.63 15.3928C1814.83 16.9533 1824.53 15.1293 1833.75 14.9522C1847 14.6977 1860.19 15.8885 1873.39 15.9814C1890.32 16.1004 1907.16 19.572 1923.95 20.3823C1930.21 20.6845 1936.35 21.9349 1942.65 21.8139C1946.47 21.7405 1952.41 19.2646 1955.97 21.956C1956.61 22.4407 1964.96 18.1364 1966.48 17.7747C1979.89 14.5831 1992.97 15.4751 2006.43 15.2166C2015.89 15.0349 2025.35 14.8532 2034.81 14.6715C2059.86 14.1903 2085.11 12.611 2110.09 15.4139C2123.22 16.8868 2136.24 16.4879 2149.37 15.2564C2169.31 13.3852 2189.43 17.268 2209.39 14.8994C2219.91 13.6504 2230.2 13.8852 2240.97 14.3921C2256.32 15.1148 2272.57 16.2944 2287.54 21.9538C2296.82 25.4633 2307.07 27.3487 2316.62 27.1652C2323.09 27.0408 2330.28 27.1853 2336.4 23.2038" stroke="white" stroke-width="19" stroke-linecap="round"/>
</svg>
