<svg width="20" height="20" viewBox="0 0 20 20" fill="none" xmlns="http://www.w3.org/2000/svg">
<path fill-rule="evenodd" clip-rule="evenodd" d="M19 3C19 4.65685 17.6569 6 16 6C15.0598 6 14.2207 5.56752 13.6706 4.89065L6.7511 8.80167C6.9112 9.16871 7 9.57399 7 10C7 10.4057 6.91947 10.7926 6.77352 11.1456L13.7075 15.0648C14.2578 14.4136 15.0806 14 16 14C17.6569 14 19 15.3431 19 17C19 18.6569 17.6569 20 16 20C14.3431 20 13 18.6569 13 17C13 16.6214 13.0701 16.2591 13.1981 15.9256L6.24175 11.9937C5.69226 12.6111 4.89155 13 4 13C2.34315 13 1 11.6569 1 10C1 8.34315 2.34315 7 4 7C4.87055 7 5.65449 7.3708 6.2025 7.96307L13.178 4.0204C13.0628 3.70187 13 3.35827 13 3C13 1.34315 14.3431 0 16 0C17.6569 0 19 1.34315 19 3Z" fill="white"/>
</svg>
