<svg width="240" height="238" viewBox="0 0 240 238" fill="none" xmlns="http://www.w3.org/2000/svg">
<g opacity="0.8">
<mask id="path-1-inside-1_64_620" fill="white">
<path d="M139.343 1.20105C134.479 0.643965 129.816 0.43524 125.053 0.429238C125.021 0.424828 124.981 0.419071 124.933 0.411599C124.808 0.392246 124.676 0.37032 124.491 0.33982L124.466 0.33541L124.404 0.325121L124.4 0.324386C124.189 0.289598 123.919 0.244644 123.635 0.202507C123.098 0.122643 122.27 0.0128909 121.36 0.00113178C120.57 -0.00903498 119.155 0.0381241 117.601 0.61126C117.527 0.623141 117.41 0.63931 117.238 0.656459C116.998 0.680345 116.72 0.699821 116.368 0.719909L116.039 0.737916C115.772 0.752247 115.449 0.769641 115.197 0.786055C113.908 0.869348 112.701 0.844605 111.158 0.813003C110.605 0.801733 110.01 0.789607 109.353 0.781155C107.098 0.752247 104.278 0.782012 101.319 1.38834C101.194 1.41407 101.054 1.44052 100.904 1.4671C99.6479 0.585537 98.1182 0.0682569 96.4681 0.0682569C92.8015 0.0682569 87.4286 0.267182 82.4144 3.22681C82.2604 3.3177 82.155 3.37588 82.0883 3.41116L81.9883 3.42831C81.7964 3.46003 81.603 3.48796 81.2983 3.53194L80.8453 3.59771C76.2565 4.26823 71.2716 5.0605 66.3571 6.39149C59.5699 8.22959 54.1041 12.7027 50.3588 17.4245C50.3446 17.4393 50.2673 17.5187 50.0781 17.6651C49.9209 17.7867 49.7346 17.9186 49.4928 18.0798C49.3023 18.2066 49.0774 18.3514 48.8048 18.5234C48.7031 18.5876 48.5867 18.6598 48.4576 18.7398C47.3755 19.4112 45.4086 20.6316 43.7952 22.2482C41.3929 24.6553 39.7687 27.2411 38.5057 29.2522L38.4162 29.3943C37.8715 30.2613 37.4256 31.0905 37.0838 31.736L36.8561 32.1672C36.7388 32.3901 36.6373 32.5824 36.5422 32.7598C36.4361 32.9576 36.3376 33.1368 36.2329 33.3189C35.9995 33.7255 35.8249 33.9821 35.6855 34.1553C35.5635 34.3071 35.4684 34.3948 35.3841 34.4634C32.9614 36.4359 30.2139 38.7595 28.0563 42.6353C28.0482 42.6439 28.0066 42.6992 27.8812 42.8637C27.8079 42.96 27.7057 43.0937 27.5648 43.2775C27.1155 43.864 26.2651 44.9841 25.583 46.503C25.4106 46.8868 25.2754 47.2396 25.1896 47.4675C25.1498 47.5737 25.1107 47.6798 25.0811 47.7603L25.072 47.7848L25.0268 47.9067C23.2073 50.7908 21.8333 53.7805 21.0438 57.5601C21.0245 57.6524 21.0059 57.7438 20.9886 57.8309C20.9656 57.9455 20.9446 58.0525 20.9267 58.1438L20.9059 58.2509L20.8624 58.47C19.3168 60.2632 17.965 62.2174 16.9103 63.7422C16.6499 64.1186 16.4076 64.4689 16.1849 64.7841C14.7353 66.8367 13.6855 68.0959 12.5471 68.9705C9.73183 71.1333 6.36571 74.2726 5.09925 79.6658C4.87799 80.6082 4.49585 81.4968 3.75285 83.2245L3.66997 83.4169C2.9722 85.0397 1.93288 87.4763 1.48498 90.3492C0.979862 93.5881 1.06763 96.7228 1.21335 99.3239C1.26518 100.246 1.32068 101.071 1.37227 101.837L1.373 101.848C1.48155 103.462 1.57226 104.814 1.57226 106.262C1.57226 108.032 1.28718 109.805 0.884511 112.311C0.828034 112.662 0.769357 113.027 0.708724 113.409C0.265465 116.202 -0.273388 119.899 0.159113 123.799L0.219013 124.345V124.348C0.41167 126.106 0.642712 128.214 1.09624 130.386C1.30992 131.409 1.62385 132.271 1.89083 132.914C2.11625 133.458 2.36758 133.981 2.51378 134.284L2.56048 134.382C2.62038 134.507 2.6639 134.599 2.69886 134.674C2.78346 135.338 2.86878 136.101 2.96095 136.927C3.22427 139.287 3.54528 142.161 4.07582 144.713C4.36628 146.109 4.3873 147.79 4.3032 150.355L4.29268 150.666L4.27508 151.15C4.19538 153.345 4.09 156.245 4.42838 159.071C4.68142 161.183 5.19631 163.854 6.15887 166.476C7.07301 168.966 8.68419 172.226 11.6151 174.613C12.7053 175.5 13.5818 176.474 14.7666 177.79C15.1216 178.184 15.5042 178.609 15.9284 179.072C16.2658 179.44 16.6293 179.831 17.0266 180.25C17.8088 181.075 18.7581 182.293 19.5336 183.6C20.3595 184.992 20.6715 185.952 20.7294 186.331C21.1265 188.917 22.2364 190.884 23.0658 192.15C23.4674 192.762 23.8826 193.325 24.1674 193.71L24.1843 193.734C24.5117 194.177 24.6909 194.421 24.841 194.647C25.859 196.177 27.136 197.499 27.8125 198.199L27.9626 198.355L28.077 198.475C28.8044 199.244 28.9193 199.46 28.9648 199.555C31.8128 205.5 37.0542 209.205 40.4179 211.583C40.8758 211.906 41.2992 212.206 41.6767 212.483C43.6121 213.901 45.6558 215.055 47.2677 215.965L47.3428 216.008C49.1041 217.002 50.3981 217.738 51.5338 218.556C51.7149 218.686 51.7783 218.74 51.9396 218.878L51.9455 218.883C52.0682 218.988 52.2482 219.141 52.576 219.41C53.276 219.985 54.2166 220.692 55.5512 221.36L55.8759 221.523L56.0426 221.608C57.0494 222.117 58.246 222.721 59.7039 223.314C59.699 223.312 59.8403 223.37 60.1701 223.606C60.5112 223.85 60.9146 224.182 61.4969 224.691C61.6185 224.797 61.7576 224.92 61.9121 225.058C62.9262 225.959 64.6081 227.453 66.4344 228.552C66.6632 228.689 66.9488 228.866 67.2759 229.069L67.3097 229.09C68.4047 229.769 69.9509 230.728 71.385 231.469C73.3869 232.502 76.1717 233.682 79.427 233.874C79.9935 233.907 80.5069 233.909 80.8817 233.908C81.08 233.907 81.2184 233.905 81.3328 233.904C81.4883 233.903 81.5995 233.902 81.7568 233.903C81.8477 233.904 81.9147 233.905 81.9611 233.907C82.2125 233.975 82.2849 234 82.3885 234.037C82.4636 234.063 82.555 234.096 82.7433 234.154C82.9073 234.205 83.1447 234.275 83.5085 234.379C84.4686 234.652 85.76 234.95 87.3607 234.988C87.3516 234.987 87.4145 234.99 87.5883 235.018C87.8088 235.053 88.0543 235.103 88.5059 235.196L88.6313 235.222C89.3982 235.381 90.8613 235.685 92.4636 235.711C93.3568 235.725 94.3171 235.7 95.0626 235.68L95.0748 235.68C95.2792 235.675 95.4672 235.67 95.633 235.666C96.1547 235.655 96.5779 235.653 96.9388 235.662C97.204 235.668 97.4356 235.68 97.6478 235.7C98.5925 235.786 99.5709 236.021 101.309 236.438L101.414 236.463C102.99 236.842 105.284 237.39 107.783 237.49C110.498 237.599 113.371 237.568 115.987 237.539C117.101 237.527 118.168 237.516 119.157 237.516C121.064 237.516 122.729 237.618 124.602 237.732L124.611 237.733C125.644 237.796 126.742 237.863 127.978 237.919C131.138 238.062 134.728 238.085 138.595 237.398L138.636 237.398C138.729 237.395 138.965 237.39 139.4 237.401C139.742 237.409 140.108 237.423 140.553 237.44L140.559 237.441L140.655 237.444C141.122 237.462 141.665 237.483 142.217 237.494C143.264 237.516 144.684 237.516 146.102 237.323C147.282 237.163 149.791 236.719 151.96 234.885C152.84 234.142 153.98 233.721 157.223 232.828C158.499 232.476 159.52 231.928 160.212 231.5C160.922 231.062 161.527 230.599 161.96 230.253C162.272 230.003 162.619 229.711 162.853 229.515L163.024 229.372C163.218 229.211 163.313 229.136 163.348 229.109C163.365 229.095 163.367 229.094 163.359 229.1C165.123 227.876 168.576 226.909 172.603 226.218C174.806 225.84 176.774 225.36 179.046 224.36C179.133 224.35 179.241 224.338 179.389 224.324L179.561 224.308C179.896 224.278 180.451 224.227 180.967 224.158C181.591 224.074 182.416 223.935 183.324 223.661C183.367 223.654 183.43 223.643 183.516 223.63L183.674 223.605C183.987 223.558 184.583 223.468 185.095 223.367C185.753 223.236 186.823 222.992 187.959 222.482C189.044 221.993 190.555 221.099 191.781 219.472C191.808 219.45 191.84 219.425 191.879 219.394L192 219.3C192.093 219.227 192.218 219.13 192.393 218.993L192.45 218.948C193.224 218.34 195.185 216.802 196.4 214.193C196.577 213.813 197.04 213.163 198.206 212.242C199.396 211.302 200.807 210.464 202.612 209.4C205.986 207.412 207.803 204.181 208.693 202.538C209.253 201.504 209.6 200.819 209.85 200.325C210.188 199.657 210.35 199.336 210.627 198.97C211.168 198.252 211.584 197.558 211.885 197.024C212.104 196.637 212.335 196.199 212.493 195.899L212.603 195.691C212.731 195.45 212.821 195.292 212.877 195.197L212.922 195.12C213.766 194.217 214.48 193.254 215.012 192.507C215.308 192.093 215.597 191.672 215.853 191.302L215.871 191.276C216.13 190.9 216.357 190.571 216.584 190.251C217.059 189.58 217.397 189.145 217.659 188.856C217.71 188.8 217.75 188.757 217.781 188.727C220.489 187.093 222.245 184.54 223.207 182.953C224.339 181.085 225.196 179.14 225.735 177.681C225.954 177.09 226.041 176.874 226.111 176.726C226.151 176.642 226.16 176.632 226.173 176.616C227.506 174.847 228.23 173 228.649 171.865C228.865 171.277 229.006 170.877 229.112 170.575C229.273 170.114 229.354 169.883 229.502 169.569C230.575 167.285 231.19 164.491 231.504 163.068C231.574 162.752 231.629 162.504 231.67 162.344C231.825 161.745 232.041 161.245 232.47 160.254C232.635 159.87 232.833 159.413 233.07 158.849C233.757 157.22 234.802 154.599 234.933 151.499C234.945 151.235 234.977 150.965 235.045 150.532C235.088 150.256 235.146 149.914 235.223 149.466L235.225 149.453C235.353 148.701 235.542 147.595 235.622 146.324C236.44 144.579 236.759 142.908 236.927 141.812C236.967 141.548 237.003 141.286 237.034 141.04C237.075 140.722 237.108 140.429 237.136 140.189L237.147 140.09C237.204 139.596 237.239 139.316 237.276 139.093C237.456 138.01 237.651 137.084 237.876 136.009L237.877 136.006C238.04 135.23 238.219 134.377 238.421 133.33C238.837 131.174 239.262 128.562 239.262 125.849C239.262 125.226 239.255 124.711 239.247 124.263C239.245 124.098 239.242 123.942 239.239 123.793C239.221 122.899 239.209 122.267 239.264 121.471C239.293 121.048 239.345 120.751 239.44 120.207C239.505 119.834 239.591 119.346 239.703 118.624C239.914 117.265 240.2 115.069 239.797 112.645C239.705 112.094 239.6 111.609 239.516 111.237C239.467 111.022 239.435 110.886 239.409 110.773C239.378 110.639 239.355 110.541 239.321 110.387C239.284 110.214 239.268 110.121 239.262 110.082C239.263 109.699 239.27 109.526 239.281 109.295C239.286 109.175 239.292 109.04 239.298 108.852C239.304 108.653 239.31 108.393 239.316 108.029C239.33 107.112 239.319 105.787 239.062 104.343C238.961 103.77 238.837 103.151 238.712 102.555C238.625 102.143 238.539 101.741 238.459 101.372C238.381 101.008 238.309 100.676 238.252 100.398C238.013 99.243 237.873 98.3942 237.823 97.669C237.624 94.7771 236.586 92.4293 236.039 91.1898L235.909 90.8977C235.736 90.5043 235.615 90.2321 235.519 89.9996C235.47 89.8791 235.426 89.7692 235.386 89.6586C235.274 89.357 235.265 89.2621 235.268 89.284C235.095 88.0281 234.84 86.9694 234.622 86.1305C234.539 85.8104 234.47 85.5522 234.409 85.3253L234.405 85.3089C234.289 84.8749 234.203 84.5554 234.108 84.1339C234.018 83.7411 233.925 83.3025 233.827 82.8293C233.744 82.4241 233.656 81.9935 233.565 81.5444C233.092 79.209 232.518 76.3732 231.794 74.0068C230.631 70.201 228.726 66.0433 224.968 62.4659C224.103 61.6427 223.219 60.9453 222.515 60.4067C222.167 60.1403 221.894 59.9352 221.651 59.7525C221.307 59.4943 221.023 59.2812 220.673 59.0039C220.168 58.6049 219.854 58.3239 219.644 58.1048C219.467 57.9202 219.414 57.8322 219.414 57.8322L219.416 57.8363C217.602 54.5299 216.251 51.2564 214.72 47.548L214.719 47.544L214.706 47.5142C214.081 46 213.427 44.4131 212.698 42.7219L212.623 42.5488C212.025 41.1603 211.297 39.4685 210.195 37.6621C206.623 31.8042 201.734 29.1571 197.528 27.0499C194.823 25.6947 192.762 23.8925 189.85 21.3458C189.304 20.8688 188.729 20.3659 188.114 19.8348C187.753 19.5225 187.378 19.2007 186.987 18.8688C186.418 18.3859 186.023 17.9764 185.439 17.3706C185.045 16.9626 184.565 16.4653 183.889 15.7965C182.542 14.4655 180.535 12.6203 177.824 11.347C176.006 10.493 174.265 10.0586 173.103 9.78217L172.722 9.69189L172.406 9.61742C171.537 9.41322 171.108 9.31229 170.652 9.15121C169.347 8.68955 168.066 8.3391 167.056 8.06423L166.922 8.02773L166.913 8.02515C165.893 7.74783 165.141 7.54303 164.421 7.3027C163.702 7.06262 163.126 6.82756 162.356 6.51337C161.913 6.33257 161.406 6.12568 160.77 5.87654C159.277 5.29091 157.313 4.58389 155.043 4.21691C153.079 3.89965 151.155 3.4702 148.972 2.98281C148.599 2.89976 148.22 2.81512 147.832 2.72901C145.271 2.16138 142.384 1.5493 139.343 1.20105Z"/>
</mask>
<path d="M139.343 1.20105C134.479 0.643965 129.816 0.43524 125.053 0.429238C125.021 0.424828 124.981 0.419071 124.933 0.411599C124.808 0.392246 124.676 0.37032 124.491 0.33982L124.466 0.33541L124.404 0.325121L124.4 0.324386C124.189 0.289598 123.919 0.244644 123.635 0.202507C123.098 0.122643 122.27 0.0128909 121.36 0.00113178C120.57 -0.00903498 119.155 0.0381241 117.601 0.61126C117.527 0.623141 117.41 0.63931 117.238 0.656459C116.998 0.680345 116.72 0.699821 116.368 0.719909L116.039 0.737916C115.772 0.752247 115.449 0.769641 115.197 0.786055C113.908 0.869348 112.701 0.844605 111.158 0.813003C110.605 0.801733 110.01 0.789607 109.353 0.781155C107.098 0.752247 104.278 0.782012 101.319 1.38834C101.194 1.41407 101.054 1.44052 100.904 1.4671C99.6479 0.585537 98.1182 0.0682569 96.4681 0.0682569C92.8015 0.0682569 87.4286 0.267182 82.4144 3.22681C82.2604 3.3177 82.155 3.37588 82.0883 3.41116L81.9883 3.42831C81.7964 3.46003 81.603 3.48796 81.2983 3.53194L80.8453 3.59771C76.2565 4.26823 71.2716 5.0605 66.3571 6.39149C59.5699 8.22959 54.1041 12.7027 50.3588 17.4245C50.3446 17.4393 50.2673 17.5187 50.0781 17.6651C49.9209 17.7867 49.7346 17.9186 49.4928 18.0798C49.3023 18.2066 49.0774 18.3514 48.8048 18.5234C48.7031 18.5876 48.5867 18.6598 48.4576 18.7398C47.3755 19.4112 45.4086 20.6316 43.7952 22.2482C41.3929 24.6553 39.7687 27.2411 38.5057 29.2522L38.4162 29.3943C37.8715 30.2613 37.4256 31.0905 37.0838 31.736L36.8561 32.1672C36.7388 32.3901 36.6373 32.5824 36.5422 32.7598C36.4361 32.9576 36.3376 33.1368 36.2329 33.3189C35.9995 33.7255 35.8249 33.9821 35.6855 34.1553C35.5635 34.3071 35.4684 34.3948 35.3841 34.4634C32.9614 36.4359 30.2139 38.7595 28.0563 42.6353C28.0482 42.6439 28.0066 42.6992 27.8812 42.8637C27.8079 42.96 27.7057 43.0937 27.5648 43.2775C27.1155 43.864 26.2651 44.9841 25.583 46.503C25.4106 46.8868 25.2754 47.2396 25.1896 47.4675C25.1498 47.5737 25.1107 47.6798 25.0811 47.7603L25.072 47.7848L25.0268 47.9067C23.2073 50.7908 21.8333 53.7805 21.0438 57.5601C21.0245 57.6524 21.0059 57.7438 20.9886 57.8309C20.9656 57.9455 20.9446 58.0525 20.9267 58.1438L20.9059 58.2509L20.8624 58.47C19.3168 60.2632 17.965 62.2174 16.9103 63.7422C16.6499 64.1186 16.4076 64.4689 16.1849 64.7841C14.7353 66.8367 13.6855 68.0959 12.5471 68.9705C9.73183 71.1333 6.36571 74.2726 5.09925 79.6658C4.87799 80.6082 4.49585 81.4968 3.75285 83.2245L3.66997 83.4169C2.9722 85.0397 1.93288 87.4763 1.48498 90.3492C0.979862 93.5881 1.06763 96.7228 1.21335 99.3239C1.26518 100.246 1.32068 101.071 1.37227 101.837L1.373 101.848C1.48155 103.462 1.57226 104.814 1.57226 106.262C1.57226 108.032 1.28718 109.805 0.884511 112.311C0.828034 112.662 0.769357 113.027 0.708724 113.409C0.265465 116.202 -0.273388 119.899 0.159113 123.799L0.219013 124.345V124.348C0.41167 126.106 0.642712 128.214 1.09624 130.386C1.30992 131.409 1.62385 132.271 1.89083 132.914C2.11625 133.458 2.36758 133.981 2.51378 134.284L2.56048 134.382C2.62038 134.507 2.6639 134.599 2.69886 134.674C2.78346 135.338 2.86878 136.101 2.96095 136.927C3.22427 139.287 3.54528 142.161 4.07582 144.713C4.36628 146.109 4.3873 147.79 4.3032 150.355L4.29268 150.666L4.27508 151.15C4.19538 153.345 4.09 156.245 4.42838 159.071C4.68142 161.183 5.19631 163.854 6.15887 166.476C7.07301 168.966 8.68419 172.226 11.6151 174.613C12.7053 175.5 13.5818 176.474 14.7666 177.79C15.1216 178.184 15.5042 178.609 15.9284 179.072C16.2658 179.44 16.6293 179.831 17.0266 180.25C17.8088 181.075 18.7581 182.293 19.5336 183.6C20.3595 184.992 20.6715 185.952 20.7294 186.331C21.1265 188.917 22.2364 190.884 23.0658 192.15C23.4674 192.762 23.8826 193.325 24.1674 193.71L24.1843 193.734C24.5117 194.177 24.6909 194.421 24.841 194.647C25.859 196.177 27.136 197.499 27.8125 198.199L27.9626 198.355L28.077 198.475C28.8044 199.244 28.9193 199.46 28.9648 199.555C31.8128 205.5 37.0542 209.205 40.4179 211.583C40.8758 211.906 41.2992 212.206 41.6767 212.483C43.6121 213.901 45.6558 215.055 47.2677 215.965L47.3428 216.008C49.1041 217.002 50.3981 217.738 51.5338 218.556C51.7149 218.686 51.7783 218.74 51.9396 218.878L51.9455 218.883C52.0682 218.988 52.2482 219.141 52.576 219.41C53.276 219.985 54.2166 220.692 55.5512 221.36L55.8759 221.523L56.0426 221.608C57.0494 222.117 58.246 222.721 59.7039 223.314C59.699 223.312 59.8403 223.37 60.1701 223.606C60.5112 223.85 60.9146 224.182 61.4969 224.691C61.6185 224.797 61.7576 224.92 61.9121 225.058C62.9262 225.959 64.6081 227.453 66.4344 228.552C66.6632 228.689 66.9488 228.866 67.2759 229.069L67.3097 229.09C68.4047 229.769 69.9509 230.728 71.385 231.469C73.3869 232.502 76.1717 233.682 79.427 233.874C79.9935 233.907 80.5069 233.909 80.8817 233.908C81.08 233.907 81.2184 233.905 81.3328 233.904C81.4883 233.903 81.5995 233.902 81.7568 233.903C81.8477 233.904 81.9147 233.905 81.9611 233.907C82.2125 233.975 82.2849 234 82.3885 234.037C82.4636 234.063 82.555 234.096 82.7433 234.154C82.9073 234.205 83.1447 234.275 83.5085 234.379C84.4686 234.652 85.76 234.95 87.3607 234.988C87.3516 234.987 87.4145 234.99 87.5883 235.018C87.8088 235.053 88.0543 235.103 88.5059 235.196L88.6313 235.222C89.3982 235.381 90.8613 235.685 92.4636 235.711C93.3568 235.725 94.3171 235.7 95.0626 235.68L95.0748 235.68C95.2792 235.675 95.4672 235.67 95.633 235.666C96.1547 235.655 96.5779 235.653 96.9388 235.662C97.204 235.668 97.4356 235.68 97.6478 235.7C98.5925 235.786 99.5709 236.021 101.309 236.438L101.414 236.463C102.99 236.842 105.284 237.39 107.783 237.49C110.498 237.599 113.371 237.568 115.987 237.539C117.101 237.527 118.168 237.516 119.157 237.516C121.064 237.516 122.729 237.618 124.602 237.732L124.611 237.733C125.644 237.796 126.742 237.863 127.978 237.919C131.138 238.062 134.728 238.085 138.595 237.398L138.636 237.398C138.729 237.395 138.965 237.39 139.4 237.401C139.742 237.409 140.108 237.423 140.553 237.44L140.559 237.441L140.655 237.444C141.122 237.462 141.665 237.483 142.217 237.494C143.264 237.516 144.684 237.516 146.102 237.323C147.282 237.163 149.791 236.719 151.96 234.885C152.84 234.142 153.98 233.721 157.223 232.828C158.499 232.476 159.52 231.928 160.212 231.5C160.922 231.062 161.527 230.599 161.96 230.253C162.272 230.003 162.619 229.711 162.853 229.515L163.024 229.372C163.218 229.211 163.313 229.136 163.348 229.109C163.365 229.095 163.367 229.094 163.359 229.1C165.123 227.876 168.576 226.909 172.603 226.218C174.806 225.84 176.774 225.36 179.046 224.36C179.133 224.35 179.241 224.338 179.389 224.324L179.561 224.308C179.896 224.278 180.451 224.227 180.967 224.158C181.591 224.074 182.416 223.935 183.324 223.661C183.367 223.654 183.43 223.643 183.516 223.63L183.674 223.605C183.987 223.558 184.583 223.468 185.095 223.367C185.753 223.236 186.823 222.992 187.959 222.482C189.044 221.993 190.555 221.099 191.781 219.472C191.808 219.45 191.84 219.425 191.879 219.394L192 219.3C192.093 219.227 192.218 219.13 192.393 218.993L192.45 218.948C193.224 218.34 195.185 216.802 196.4 214.193C196.577 213.813 197.04 213.163 198.206 212.242C199.396 211.302 200.807 210.464 202.612 209.4C205.986 207.412 207.803 204.181 208.693 202.538C209.253 201.504 209.6 200.819 209.85 200.325C210.188 199.657 210.35 199.336 210.627 198.97C211.168 198.252 211.584 197.558 211.885 197.024C212.104 196.637 212.335 196.199 212.493 195.899L212.603 195.691C212.731 195.45 212.821 195.292 212.877 195.197L212.922 195.12C213.766 194.217 214.48 193.254 215.012 192.507C215.308 192.093 215.597 191.672 215.853 191.302L215.871 191.276C216.13 190.9 216.357 190.571 216.584 190.251C217.059 189.58 217.397 189.145 217.659 188.856C217.71 188.8 217.75 188.757 217.781 188.727C220.489 187.093 222.245 184.54 223.207 182.953C224.339 181.085 225.196 179.14 225.735 177.681C225.954 177.09 226.041 176.874 226.111 176.726C226.151 176.642 226.16 176.632 226.173 176.616C227.506 174.847 228.23 173 228.649 171.865C228.865 171.277 229.006 170.877 229.112 170.575C229.273 170.114 229.354 169.883 229.502 169.569C230.575 167.285 231.19 164.491 231.504 163.068C231.574 162.752 231.629 162.504 231.67 162.344C231.825 161.745 232.041 161.245 232.47 160.254C232.635 159.87 232.833 159.413 233.07 158.849C233.757 157.22 234.802 154.599 234.933 151.499C234.945 151.235 234.977 150.965 235.045 150.532C235.088 150.256 235.146 149.914 235.223 149.466L235.225 149.453C235.353 148.701 235.542 147.595 235.622 146.324C236.44 144.579 236.759 142.908 236.927 141.812C236.967 141.548 237.003 141.286 237.034 141.04C237.075 140.722 237.108 140.429 237.136 140.189L237.147 140.09C237.204 139.596 237.239 139.316 237.276 139.093C237.456 138.01 237.651 137.084 237.876 136.009L237.877 136.006C238.04 135.23 238.219 134.377 238.421 133.33C238.837 131.174 239.262 128.562 239.262 125.849C239.262 125.226 239.255 124.711 239.247 124.263C239.245 124.098 239.242 123.942 239.239 123.793C239.221 122.899 239.209 122.267 239.264 121.471C239.293 121.048 239.345 120.751 239.44 120.207C239.505 119.834 239.591 119.346 239.703 118.624C239.914 117.265 240.2 115.069 239.797 112.645C239.705 112.094 239.6 111.609 239.516 111.237C239.467 111.022 239.435 110.886 239.409 110.773C239.378 110.639 239.355 110.541 239.321 110.387C239.284 110.214 239.268 110.121 239.262 110.082C239.263 109.699 239.27 109.526 239.281 109.295C239.286 109.175 239.292 109.04 239.298 108.852C239.304 108.653 239.31 108.393 239.316 108.029C239.33 107.112 239.319 105.787 239.062 104.343C238.961 103.77 238.837 103.151 238.712 102.555C238.625 102.143 238.539 101.741 238.459 101.372C238.381 101.008 238.309 100.676 238.252 100.398C238.013 99.243 237.873 98.3942 237.823 97.669C237.624 94.7771 236.586 92.4293 236.039 91.1898L235.909 90.8977C235.736 90.5043 235.615 90.2321 235.519 89.9996C235.47 89.8791 235.426 89.7692 235.386 89.6586C235.274 89.357 235.265 89.2621 235.268 89.284C235.095 88.0281 234.84 86.9694 234.622 86.1305C234.539 85.8104 234.47 85.5522 234.409 85.3253L234.405 85.3089C234.289 84.8749 234.203 84.5554 234.108 84.1339C234.018 83.7411 233.925 83.3025 233.827 82.8293C233.744 82.4241 233.656 81.9935 233.565 81.5444C233.092 79.209 232.518 76.3732 231.794 74.0068C230.631 70.201 228.726 66.0433 224.968 62.4659C224.103 61.6427 223.219 60.9453 222.515 60.4067C222.167 60.1403 221.894 59.9352 221.651 59.7525C221.307 59.4943 221.023 59.2812 220.673 59.0039C220.168 58.6049 219.854 58.3239 219.644 58.1048C219.467 57.9202 219.414 57.8322 219.414 57.8322L219.416 57.8363C217.602 54.5299 216.251 51.2564 214.72 47.548L214.719 47.544L214.706 47.5142C214.081 46 213.427 44.4131 212.698 42.7219L212.623 42.5488C212.025 41.1603 211.297 39.4685 210.195 37.6621C206.623 31.8042 201.734 29.1571 197.528 27.0499C194.823 25.6947 192.762 23.8925 189.85 21.3458C189.304 20.8688 188.729 20.3659 188.114 19.8348C187.753 19.5225 187.378 19.2007 186.987 18.8688C186.418 18.3859 186.023 17.9764 185.439 17.3706C185.045 16.9626 184.565 16.4653 183.889 15.7965C182.542 14.4655 180.535 12.6203 177.824 11.347C176.006 10.493 174.265 10.0586 173.103 9.78217L172.722 9.69189L172.406 9.61742C171.537 9.41322 171.108 9.31229 170.652 9.15121C169.347 8.68955 168.066 8.3391 167.056 8.06423L166.922 8.02773L166.913 8.02515C165.893 7.74783 165.141 7.54303 164.421 7.3027C163.702 7.06262 163.126 6.82756 162.356 6.51337C161.913 6.33257 161.406 6.12568 160.77 5.87654C159.277 5.29091 157.313 4.58389 155.043 4.21691C153.079 3.89965 151.155 3.4702 148.972 2.98281C148.599 2.89976 148.22 2.81512 147.832 2.72901C145.271 2.16138 142.384 1.5493 139.343 1.20105Z" stroke="white" stroke-width="4" mask="url(#path-1-inside-1_64_620)"/>
</g>
</svg>
