<svg width="494" height="490" viewBox="0 0 494 490" fill="none" xmlns="http://www.w3.org/2000/svg">
<path d="M286.457 2.46874C276.457 1.32365 266.872 0.894626 257.079 0.882289C257.014 0.873225 256.933 0.861391 256.833 0.846033C256.576 0.806252 256.305 0.761184 255.926 0.698491L255.872 0.689427L255.746 0.668278L255.738 0.666767C255.304 0.595262 254.748 0.50286 254.164 0.416249C253.061 0.25209 251.359 0.026497 249.488 0.00232635C247.863 -0.0185712 244.955 0.0783632 241.76 1.25643C241.609 1.28085 241.368 1.31409 241.014 1.34934C240.521 1.39843 239.95 1.43847 239.225 1.47976L238.55 1.51677C238.001 1.54623 237.337 1.58198 236.818 1.61572C234.169 1.78693 231.687 1.73607 228.515 1.67111C227.379 1.64794 226.155 1.62302 224.804 1.60565C220.168 1.54623 214.371 1.60741 208.288 2.85371C208.031 2.90658 207.745 2.96096 207.436 3.0156C204.853 1.20356 201.708 0.1403 198.316 0.1403C190.779 0.1403 179.733 0.549187 169.425 6.63264C169.108 6.81945 168.892 6.93905 168.755 7.01156L168.549 7.04681C168.154 7.11202 167.757 7.16943 167.131 7.25981L166.199 7.39502C156.766 8.77325 146.518 10.4017 136.415 13.1376C122.462 16.9157 111.226 26.1101 103.526 35.8157C103.497 35.8461 103.338 36.0093 102.949 36.3102C102.626 36.5602 102.243 36.8313 101.746 37.1627C101.354 37.4233 100.892 37.7209 100.331 38.0744C100.122 38.2063 99.8831 38.3548 99.6177 38.5193C97.3931 39.8992 93.3496 42.4077 90.0329 45.7307C85.0942 50.6783 81.7553 55.9934 79.1588 60.1273L78.9749 60.4194C77.8551 62.2014 76.9383 63.9057 76.2356 65.2326L75.7677 66.1189C75.5265 66.5771 75.3179 66.9724 75.1224 67.337C74.9042 67.7436 74.7017 68.1119 74.4866 68.4863C74.0066 69.322 73.6477 69.8494 73.3612 70.2055C73.1104 70.5174 72.9149 70.6977 72.7415 70.8387C67.7611 74.8931 62.1127 79.6693 57.6772 87.6358C57.6606 87.6536 57.5752 87.7672 57.3173 88.1053C57.1665 88.3032 56.9564 88.5782 56.6669 88.9558C55.7431 90.1613 53.995 92.4639 52.5928 95.5859C52.2384 96.3747 51.9605 97.0998 51.7841 97.5684C51.7021 97.7867 51.6217 98.0047 51.5609 98.1701L51.5423 98.2205L51.4493 98.471C47.7089 104.399 44.8842 110.544 43.2613 118.313C43.2216 118.503 43.1834 118.691 43.1477 118.87C43.1004 119.106 43.0572 119.325 43.0205 119.513L42.9778 119.733L42.8883 120.184C39.7108 123.87 36.9319 127.886 34.7636 131.021C34.2283 131.794 33.7302 132.514 33.2723 133.162C30.2923 137.381 28.1341 139.969 25.794 141.767C20.0064 146.213 13.0864 152.666 10.4829 163.751C10.028 165.688 9.24244 167.515 7.715 171.066L7.54461 171.462C6.11016 174.797 3.97355 179.805 3.05277 185.711C2.01437 192.368 2.19481 198.811 2.49436 204.158C2.60092 206.054 2.71501 207.75 2.82106 209.324L2.82257 209.346C3.04573 212.665 3.2322 215.443 3.2322 218.419C3.2322 222.057 2.64615 225.702 1.81835 230.852C1.70225 231.573 1.58162 232.325 1.45697 233.11C0.545736 238.851 -0.562022 246.45 0.327099 254.466L0.450239 255.589V255.594C0.846298 259.209 1.32127 263.541 2.25361 268.004C2.6929 270.107 3.33825 271.879 3.8871 273.202C4.35051 274.319 4.8672 275.394 5.16776 276.018L5.26376 276.218C5.3869 276.475 5.47636 276.664 5.54824 276.82C5.72214 278.185 5.89755 279.752 6.08704 281.449C6.62835 286.3 7.28828 292.208 8.37895 297.454C8.97605 300.324 9.01928 303.779 8.84638 309.05L8.82477 309.691L8.78858 310.685C8.62473 315.196 8.4081 321.158 9.10372 326.966C9.62392 331.308 10.6824 336.798 12.6612 342.188C14.5405 347.306 17.8527 354.007 23.878 358.912C26.1192 360.737 27.921 362.737 30.3567 365.443C31.0865 366.253 31.8731 367.127 32.7451 368.078C33.4387 368.834 34.1861 369.639 35.0028 370.5C36.6107 372.195 38.5623 374.698 40.1566 377.385C41.8544 380.246 42.4958 382.221 42.6149 382.998C43.4311 388.315 45.713 392.359 47.4179 394.959C48.2437 396.219 49.0971 397.374 49.6826 398.167L49.7173 398.215C50.3903 399.126 50.7587 399.628 51.0673 400.092C53.1602 403.237 55.7854 405.954 57.1761 407.393L57.4847 407.714L57.7199 407.96C59.2152 409.542 59.4514 409.985 59.5449 410.18C65.3998 422.4 76.1748 430.016 83.0898 434.903C84.0312 435.569 84.9017 436.184 85.6777 436.753C89.6564 439.669 93.8577 442.041 97.1715 443.911L97.3258 443.998C100.947 446.042 103.607 447.555 105.942 449.236C106.314 449.504 106.444 449.615 106.776 449.898L106.788 449.908C107.04 450.124 107.41 450.439 108.084 450.992C109.523 452.173 111.457 453.626 114.2 455.001L114.868 455.336L115.211 455.51C117.28 456.555 119.74 457.798 122.737 459.017C122.727 459.013 123.018 459.132 123.696 459.617C124.397 460.119 125.226 460.801 126.424 461.846C126.673 462.065 126.959 462.319 127.277 462.601C129.362 464.453 132.819 467.525 136.574 469.782C137.044 470.065 137.631 470.429 138.304 470.846L138.373 470.889C140.624 472.285 143.803 474.257 146.751 475.779C150.867 477.903 156.591 480.328 163.284 480.722C164.448 480.791 165.504 480.795 166.274 480.792C166.682 480.79 166.966 480.787 167.201 480.785C167.521 480.782 167.75 480.78 168.073 480.782C168.26 480.783 168.398 480.787 168.493 480.791C169.01 480.929 169.159 480.982 169.372 481.057C169.526 481.112 169.714 481.178 170.101 481.298C170.438 481.402 170.926 481.547 171.674 481.76C173.648 482.321 176.303 482.935 179.593 483.012C179.575 483.011 179.704 483.016 180.061 483.073C180.515 483.146 181.019 483.248 181.948 483.439L182.205 483.493C183.782 483.821 186.79 484.445 190.084 484.498C191.92 484.527 193.894 484.476 195.427 484.436L195.452 484.435C195.872 484.424 196.258 484.414 196.599 484.407C197.672 484.384 198.542 484.379 199.284 484.397C199.829 484.41 200.305 484.436 200.741 484.476C202.683 484.652 204.695 485.135 208.269 485.993L208.483 486.044C211.724 486.822 216.44 487.949 221.577 488.155C227.158 488.378 233.064 488.315 238.443 488.257C240.733 488.232 242.926 488.209 244.959 488.209C248.879 488.209 252.303 488.418 256.153 488.653L256.171 488.654C258.296 488.784 260.552 488.922 263.092 489.036C269.59 489.33 276.971 489.379 284.92 487.967L285.003 487.965C285.196 487.961 285.681 487.95 286.574 487.972C287.278 487.989 288.03 488.018 288.944 488.053L288.957 488.054L289.154 488.061C290.114 488.099 291.23 488.141 292.366 488.164C294.517 488.209 297.437 488.209 300.352 487.812C302.778 487.482 307.936 486.57 312.395 482.801C314.203 481.273 316.548 480.409 323.215 478.572C325.837 477.85 327.935 476.722 329.359 475.843C330.819 474.942 332.062 473.991 332.952 473.279C333.593 472.767 334.308 472.167 334.789 471.763L335.139 471.469C335.538 471.137 335.734 470.983 335.805 470.928C335.841 470.9 335.846 470.897 335.828 470.909C339.454 468.394 346.553 466.406 354.831 464.986C359.362 464.209 363.406 463.223 368.077 461.166C368.256 461.145 368.479 461.122 368.783 461.093L369.135 461.061C369.825 460.998 370.965 460.893 372.027 460.751C373.308 460.579 375.005 460.292 376.872 459.731C376.96 459.715 377.089 459.693 377.266 459.666L377.592 459.616C378.234 459.518 379.459 459.333 380.513 459.125C381.866 458.857 384.065 458.355 386.399 457.306C388.631 456.302 391.736 454.463 394.257 451.12C394.314 451.074 394.378 451.023 394.459 450.96L394.708 450.765C394.899 450.617 395.155 450.417 395.515 450.134L395.632 450.042C397.223 448.794 401.255 445.631 403.753 440.269C404.117 439.487 405.068 438.151 407.465 436.259C409.913 434.327 412.812 432.605 416.524 430.417C423.459 426.33 427.194 419.689 429.024 416.312C430.176 414.187 430.889 412.78 431.403 411.763C432.097 410.391 432.432 409.731 433 408.978C434.112 407.502 434.968 406.075 435.587 404.978C436.036 404.182 436.511 403.283 436.836 402.666L437.063 402.239C437.327 401.743 437.511 401.419 437.626 401.222L437.719 401.065C439.453 399.209 440.921 397.229 442.015 395.694C442.623 394.842 443.219 393.978 443.743 393.217L443.781 393.163C444.313 392.391 444.78 391.714 445.246 391.056C446.223 389.678 446.918 388.784 447.456 388.189C447.561 388.073 447.645 387.986 447.707 387.923C453.275 384.565 456.885 379.318 458.863 376.055C461.19 372.216 462.951 368.218 464.059 365.219C464.509 364.004 464.688 363.561 464.832 363.256C464.913 363.084 464.934 363.064 464.959 363.031C467.701 359.395 469.189 355.598 470.049 353.265C470.494 352.057 470.783 351.233 471.001 350.612C471.333 349.666 471.499 349.192 471.802 348.546C474.008 343.85 475.274 338.107 475.919 335.183C476.062 334.534 476.175 334.023 476.26 333.694C476.58 332.463 477.024 331.435 477.904 329.398C478.244 328.61 478.65 327.67 479.139 326.51C480.55 323.162 482.698 317.775 482.969 311.404C482.992 310.861 483.058 310.304 483.198 309.414C483.287 308.847 483.407 308.144 483.564 307.223L483.568 307.198C483.832 305.651 484.219 303.379 484.385 300.765C486.067 297.179 486.721 293.744 487.066 291.491C487.149 290.949 487.223 290.411 487.287 289.904C487.371 289.251 487.44 288.649 487.497 288.156L487.52 287.951C487.637 286.935 487.708 286.362 487.785 285.902C488.155 283.676 488.555 281.773 489.019 279.563L489.02 279.557C489.355 277.962 489.723 276.208 490.139 274.056C490.994 269.625 491.867 264.256 491.867 258.68C491.867 257.4 491.853 256.34 491.837 255.419C491.832 255.08 491.825 254.759 491.819 254.453C491.784 252.617 491.758 251.317 491.871 249.681C491.931 248.812 492.038 248.201 492.234 247.082C492.368 246.317 492.543 245.314 492.774 243.828C493.207 241.036 493.796 236.522 492.967 231.539C492.779 230.407 492.562 229.409 492.389 228.645C492.289 228.204 492.223 227.923 492.17 227.692C492.105 227.416 492.058 227.214 491.989 226.897C491.912 226.543 491.88 226.352 491.867 226.272C491.869 225.485 491.885 225.128 491.905 224.654C491.916 224.407 491.928 224.13 491.941 223.744C491.954 223.333 491.967 222.799 491.979 222.051C492.008 220.167 491.984 217.442 491.457 214.474C491.248 213.296 490.993 212.025 490.736 210.8C490.559 209.952 490.381 209.125 490.217 208.367C490.056 207.62 489.909 206.938 489.791 206.367C489.3 203.992 489.012 202.247 488.909 200.756C488.5 194.812 486.367 189.986 485.241 187.439L484.975 186.838C484.618 186.029 484.371 185.47 484.173 184.992C484.071 184.744 483.982 184.518 483.898 184.291C483.669 183.671 483.65 183.476 483.657 183.521C483.301 180.94 482.777 178.764 482.329 177.039C482.158 176.381 482.016 175.851 481.891 175.384L481.882 175.351C481.644 174.458 481.468 173.802 481.271 172.935C481.088 172.128 480.896 171.226 480.695 170.254C480.523 169.421 480.344 168.536 480.156 167.613C479.184 162.812 478.003 156.983 476.516 152.119C474.124 144.297 470.207 135.75 462.481 128.397C460.704 126.705 458.887 125.272 457.44 124.165C456.724 123.617 456.163 123.195 455.663 122.82C454.956 122.289 454.373 121.851 453.652 121.281C452.614 120.461 451.97 119.883 451.537 119.433C451.172 119.054 451.065 118.873 451.065 118.873L451.069 118.881C447.339 112.085 444.562 105.356 441.415 97.7338L441.412 97.7255L441.387 97.6643C440.102 94.5518 438.756 91.2901 437.258 87.8138L437.104 87.458C435.875 84.6041 434.378 81.1266 432.113 77.4136C424.769 65.3728 414.717 59.9317 406.072 55.6003C400.511 52.8149 396.274 49.1105 390.288 43.8758C389.166 42.8954 387.984 41.8616 386.719 40.7699C385.976 40.1281 385.205 39.4667 384.402 38.7844C383.233 37.7919 382.421 36.9502 381.219 35.7049C380.41 34.8662 379.424 33.844 378.032 32.4693C375.264 29.7335 371.138 25.9407 365.565 23.3235C361.828 21.5681 358.249 20.6753 355.859 20.107L355.077 19.9215L354.426 19.7684C352.64 19.3487 351.758 19.1412 350.821 18.8101C348.138 17.8612 345.506 17.1408 343.429 16.5758L343.153 16.5008L343.135 16.4955C341.039 15.9255 339.491 15.5045 338.012 15.0105C336.534 14.517 335.35 14.0339 333.767 13.3881C332.856 13.0165 331.813 12.5912 330.506 12.0791C327.436 10.8753 323.399 9.42208 318.732 8.66775C314.696 8.01565 310.741 7.13292 306.251 6.13109C305.486 5.96039 304.706 5.78641 303.908 5.60941C298.643 4.44268 292.709 3.18454 286.457 2.46874Z" fill="white"/>
<circle cx="169.34" cy="198.608" r="18.8155" fill="black"/>
<circle cx="315.683" cy="198.608" r="18.8155" fill="black"/>
<ellipse cx="119.165" cy="284.324" rx="31.3592" ry="33.4498" fill="#EEEEEE"/>
<ellipse cx="399.307" cy="284.324" rx="31.3592" ry="33.4498" fill="#EEEEEE"/>
<path d="M196.518 326.136V326.136C204.834 346.373 224.676 359.586 246.556 359.586V359.586C267.904 359.586 287.397 347.085 296.191 327.632L296.867 326.136" stroke="black" stroke-width="7"/>
<path d="M224.261 286.696L233.473 221.736L391.338 254.844L224.261 286.696Z" fill="#B50000"/>
</svg>
