<svg width="634" height="632" viewBox="0 0 634 632" fill="none" xmlns="http://www.w3.org/2000/svg">
<path fill-rule="evenodd" clip-rule="evenodd" d="M367.89 3.16437C355.047 1.6966 342.737 1.14676 330.16 1.13088C330.077 1.11926 329.972 1.10401 329.844 1.08428C329.498 1.03113 329.134 0.970631 328.61 0.883679L328.447 0.856608C327.89 0.764115 327.171 0.645272 326.417 0.533358C325 0.323005 322.814 0.0339905 320.41 0.00300243C318.324 -0.0238943 314.589 0.100415 310.486 1.61056C310.292 1.64185 309.982 1.68444 309.528 1.72961C308.895 1.79256 308.162 1.84375 307.231 1.8968C306.998 1.91006 306.698 1.92619 306.366 1.94408L306.363 1.9442C305.658 1.98215 304.805 2.02796 304.139 2.07093C300.737 2.29043 297.549 2.22533 293.475 2.14215C292.017 2.11237 290.445 2.08028 288.71 2.05809C282.756 1.98197 275.311 2.06033 267.499 3.65813C267.169 3.72567 266.801 3.7955 266.405 3.86541C263.088 1.54264 259.049 0.1797 254.692 0.1797C245.012 0.1797 230.827 0.703827 217.588 8.50196C217.181 8.74169 216.903 8.89472 216.727 8.98778C216.655 9.00067 216.567 9.01575 216.463 9.03299C215.957 9.11655 215.446 9.19019 214.642 9.30602L214.641 9.30616C214.302 9.35505 213.91 9.41145 213.445 9.47929C201.33 11.246 188.169 13.3337 175.195 16.8404C157.275 21.6835 142.844 33.4696 132.956 45.9109C132.919 45.9501 132.714 46.159 132.215 46.5449C131.473 47.1175 130.488 47.7773 128.853 48.8061C128.585 48.9753 128.277 49.1657 127.936 49.3767C125.08 51.1455 119.887 54.361 115.627 58.6208C109.285 64.963 104.997 71.7761 101.661 77.0752L101.426 77.4498C99.9874 79.7341 98.8097 81.9186 97.9076 83.6197C97.6888 84.0323 97.4903 84.4082 97.3068 84.7558C96.6509 85.9981 96.1849 86.8805 95.6614 87.7903C94.5044 89.8009 93.8964 90.4191 93.4204 90.8058C87.0239 96.003 79.7702 102.126 74.0732 112.338C74.0569 112.355 73.9861 112.448 73.7977 112.695C73.6041 112.949 73.2864 113.365 72.776 114.03C71.5899 115.575 69.3445 118.527 67.5436 122.529C67.0885 123.54 66.7313 124.469 66.5051 125.07C66.3997 125.35 66.2965 125.629 66.2182 125.841L66.1943 125.906C66.1483 126.03 66.1096 126.135 66.0753 126.227C61.2713 133.826 57.6435 141.704 55.5591 151.662C55.4412 152.226 55.3332 152.777 55.2503 153.2L55.2418 153.244C55.1796 153.561 55.1288 153.821 55.0808 154.06C50.9995 158.785 47.4307 163.934 44.6462 167.951C43.9588 168.943 43.3189 169.866 42.7312 170.697C38.9038 176.105 36.1323 179.423 33.1266 181.727C25.6935 187.426 16.8067 195.697 13.4631 209.908C12.8788 212.391 11.8699 214.732 9.90806 219.284L9.68954 219.791C7.84742 224.067 5.10341 230.487 3.92066 238.057C2.58724 246.591 2.81878 254.85 3.20387 261.704C3.34046 264.135 3.48697 266.308 3.62294 268.326C3.91052 272.593 4.151 276.161 4.151 279.985C4.151 284.647 3.39839 289.32 2.33526 295.922L2.33475 295.925C2.18589 296.849 2.03095 297.811 1.87113 298.816C0.701094 306.175 -0.72172 315.917 0.419931 326.192C0.472032 326.66 0.524685 327.141 0.578468 327.631C1.08686 332.267 1.69618 337.822 2.89423 343.546C3.45843 346.242 4.28751 348.514 4.99236 350.21C5.58743 351.642 6.25095 353.019 6.63679 353.819L6.76001 354.075C6.91825 354.405 7.03328 354.647 7.12561 354.847C7.3491 356.596 7.57392 358.606 7.8173 360.781C8.51298 367 9.36023 374.573 10.761 381.297C11.5277 384.977 11.5836 389.406 11.3613 396.162C11.3394 396.828 11.3139 397.528 11.2873 398.257C11.0768 404.041 10.7985 411.683 11.6919 419.128C12.3598 424.693 13.7193 431.732 16.2607 438.64C18.6742 445.201 22.9276 453.791 30.6663 460.079C33.5445 462.417 35.8582 464.982 38.9866 468.45L38.9876 468.451C40.6693 470.316 42.5864 472.441 44.9531 474.932C47.018 477.106 49.5244 480.314 51.572 483.758C53.7527 487.426 54.5761 489.957 54.7294 490.953C55.7779 497.769 58.708 502.952 60.8976 506.286C61.9579 507.9 63.0531 509.381 63.8049 510.397L63.806 510.398L63.8509 510.459C64.7151 511.628 65.188 512.271 65.5844 512.866C68.2722 516.897 71.6438 520.38 73.4296 522.225C73.7022 522.507 73.9379 522.75 74.1285 522.952C76.0483 524.98 76.3523 525.547 76.472 525.797C83.9915 541.462 97.8298 551.224 106.71 557.489C107.919 558.342 109.037 559.131 110.034 559.86C115.143 563.599 120.539 566.639 124.795 569.036L124.993 569.148C129.643 571.768 133.06 573.707 136.058 575.862C136.537 576.206 136.704 576.348 137.13 576.711C137.455 576.988 137.93 577.392 138.81 578.113C140.658 579.627 143.141 581.49 146.665 583.251C147.084 583.461 147.516 583.679 147.962 583.904L147.964 583.905C150.622 585.245 153.781 586.838 157.628 588.399C157.615 588.394 157.988 588.547 158.859 589.169C159.76 589.812 160.825 590.686 162.362 592.027C162.684 592.307 163.051 592.632 163.458 592.994C166.136 595.369 170.576 599.306 175.399 602.2C176.022 602.574 176.807 603.06 177.707 603.617L177.709 603.618C180.6 605.408 184.682 607.935 188.469 609.886C193.754 612.61 201.106 615.718 209.701 616.223C211.197 616.311 212.552 616.316 213.542 616.312C214.065 616.31 214.43 616.306 214.732 616.303C215.143 616.299 215.437 616.297 215.852 616.3C216.092 616.301 216.269 616.306 216.391 616.311C217.055 616.488 217.246 616.556 217.52 616.652C217.891 616.783 218.414 616.967 220.477 617.553C223.012 618.273 226.421 619.06 230.648 619.158C230.661 619.159 230.718 619.163 230.829 619.177C258.878 627.52 288.59 632 319.348 632C340.803 632 361.748 629.82 381.975 625.67C383.203 625.597 384.469 625.483 385.734 625.312C387.802 625.031 391.418 624.421 395.29 622.629C422.987 615.654 449.202 604.951 473.371 591.085C473.449 591.078 473.531 591.07 473.618 591.061C473.743 591.049 473.896 591.036 474.071 591.02C474.957 590.939 476.421 590.805 477.784 590.623C479.43 590.402 481.608 590.034 484.007 589.315C484.12 589.295 484.285 589.267 484.513 589.231C484.607 589.216 484.741 589.196 484.908 589.171L484.931 589.167C485.757 589.042 487.33 588.805 488.682 588.538C490.421 588.195 493.245 587.552 496.243 586.206C499.109 584.92 503.096 582.562 506.334 578.277C506.468 578.169 506.637 578.038 506.906 577.828L506.913 577.822L506.936 577.805C507.179 577.616 507.502 577.364 507.949 577.013L508.1 576.895C510.143 575.295 515.321 571.241 518.529 564.368C518.997 563.365 520.218 561.652 523.297 559.227C526.44 556.751 530.164 554.543 534.932 551.738C543.837 546.5 548.634 537.986 550.984 533.658C552.464 530.933 553.379 529.129 554.04 527.826C554.932 526.068 555.361 525.222 556.09 524.256C557.519 522.365 558.619 520.535 559.413 519.129C559.991 518.107 560.602 516.951 561.02 516.161C561.026 516.149 561.032 516.138 561.038 516.126C565.967 509.997 570.667 503.676 575.126 497.177C582.194 492.87 586.783 486.208 589.306 482.054C592.294 477.132 594.555 472.008 595.979 468.164C596.556 466.605 596.787 466.037 596.972 465.647C597.068 465.444 597.097 465.406 597.127 465.368L597.134 465.358C600.656 460.697 602.567 455.829 603.672 452.839C604.244 451.291 604.614 450.235 604.894 449.44L604.895 449.437C605.32 448.226 605.534 447.618 605.924 446.79C608.756 440.77 610.382 433.409 611.21 429.661C611.394 428.828 611.539 428.174 611.649 427.752C612.059 426.175 612.629 424.857 613.759 422.247L613.759 422.246L613.761 422.241C614.198 421.232 614.719 420.029 615.346 418.543C617.158 414.251 619.917 407.346 620.264 399.178C620.313 398.039 620.51 396.852 621.028 393.82L621.033 393.788C621.086 393.478 621.143 393.146 621.202 392.794C622.035 389.226 622.806 385.635 623.515 382.021C624.653 378.759 625.198 375.791 625.526 373.653C625.77 372.066 625.95 370.503 626.079 369.378L626.109 369.116C626.259 367.813 626.351 367.078 626.449 366.49C626.925 363.636 627.438 361.197 628.034 358.365L628.034 358.364C628.465 356.317 628.938 354.066 629.472 351.304C630.571 345.624 631.693 338.741 631.693 331.593C631.693 329.35 631.659 327.633 631.631 326.179V326.176C631.585 323.822 631.552 322.155 631.697 320.058C631.774 318.944 631.911 318.161 632.163 316.726C632.335 315.746 632.56 314.46 632.856 312.556C633.413 308.977 634.169 303.19 633.105 296.803C632.863 295.352 632.585 294.073 632.362 293.093C632.234 292.528 632.15 292.167 632.081 291.872C632.037 291.685 631.999 291.524 631.96 291.354C631.926 291.203 631.89 291.044 631.849 290.853C631.75 290.398 631.708 290.153 631.693 290.05C631.694 289.042 631.714 288.584 631.741 287.976C631.77 287.325 631.806 286.501 631.835 284.64C631.873 282.225 631.842 278.733 631.166 274.928C630.711 272.373 630.086 269.476 629.573 267.099C629.366 266.141 629.177 265.268 629.026 264.535C628.395 261.491 628.025 259.254 627.894 257.344C627.368 249.724 624.628 243.538 623.182 240.272L622.841 239.502C622.144 237.928 621.774 237.09 621.458 236.237C621.164 235.443 621.139 235.192 621.147 235.25C620.691 231.941 620.018 229.151 619.443 226.941C619.218 226.077 619.032 225.384 618.869 224.776C618.562 223.633 618.336 222.791 618.084 221.68C617.647 219.759 617.173 217.423 616.652 214.857L616.652 214.856C615.403 208.703 613.886 201.232 611.977 194.997C608.905 184.969 603.875 174.014 593.953 164.588C591.669 162.419 589.337 160.582 587.478 159.163C586.562 158.463 585.842 157.923 585.201 157.443L585.196 157.439C584.289 156.759 583.54 156.197 582.614 155.467C581.281 154.415 580.453 153.675 579.897 153.097C579.371 152.551 579.262 152.326 579.297 152.39C574.504 143.675 570.936 135.047 566.894 125.271L566.892 125.265C565.233 121.254 563.495 117.049 561.558 112.566L561.362 112.11C559.784 108.451 557.86 103.994 554.952 99.234C545.52 83.7995 532.611 76.8244 521.507 71.2724C514.366 67.7019 508.925 62.9532 501.236 56.2431L501.235 56.2422C498.949 54.2472 496.464 52.0789 493.677 49.7165C492.176 48.4441 491.133 47.3654 489.59 45.769C488.55 44.6937 487.284 43.3836 485.497 41.6212C481.942 38.1145 476.643 33.2526 469.486 29.8975C464.686 27.6475 460.09 26.5029 457.021 25.7744C456.331 25.6107 455.723 25.468 455.18 25.3405C452.887 24.8023 451.753 24.5363 450.551 24.112C447.104 22.8956 443.724 21.9722 441.058 21.2481L440.703 21.1517C437.999 20.4176 436.006 19.8766 434.1 19.2415C432.202 18.6088 430.681 17.9895 428.648 17.1617C427.478 16.6855 426.139 16.1402 424.461 15.4836C420.517 13.9408 415.334 12.0777 409.339 11.1108C404.156 10.2748 399.076 9.14331 393.31 7.85908L393.309 7.8587C392.327 7.64011 391.326 7.4171 390.301 7.19037C383.54 5.69473 375.919 4.08201 367.89 3.16437ZM230.648 619.158C230.655 619.158 230.662 619.158 230.669 619.159C230.653 619.158 230.645 619.158 230.645 619.158C230.645 619.158 230.646 619.158 230.648 619.158Z" fill="white"/>
<ellipse cx="298.558" cy="111.721" rx="9.5082" ry="9.98361" fill="#191919"/>
<ellipse cx="298.558" cy="166.87" rx="9.5082" ry="9.98361" fill="#191919"/>
<ellipse cx="298.558" cy="222.015" rx="9.5082" ry="9.98361" fill="#191919"/>
</svg>
