<svg width="2406" height="1033" viewBox="0 0 2406 1033" fill="none" xmlns="http://www.w3.org/2000/svg">
<path fill-rule="evenodd" clip-rule="evenodd" d="M1380.47 462.143C1383.05 458.32 1388.68 458.32 1391.25 462.143L1501.92 626.362C1504.82 630.679 1501.73 636.494 1496.53 636.494H1444.86L1530.56 756.963C1533.56 761.183 1530.59 767.103 1525.39 767.274L1479.43 768.786L1576.69 912.87C1579.6 917.187 1576.51 923.007 1571.3 923.007H1201.25C1196.04 923.007 1192.95 917.187 1195.86 912.87L1288.89 775.058L1250.28 776.329C1245.07 776.5 1241.86 770.784 1244.68 766.372L1327.73 636.494H1275.2C1269.99 636.494 1266.9 630.679 1269.81 626.362L1380.47 462.143Z" fill="#476982"/>
<path fill-rule="evenodd" clip-rule="evenodd" d="M270.821 11.593C273.472 7.79238 279.261 8.16526 281.72 12.295L381.706 180.232C384.388 184.736 381.151 190.234 376.013 189.904L318.164 186.178L415.242 326.869C418.164 331.104 415.241 336.894 410.098 337.057L355.745 338.778L460.957 513.435C463.659 517.921 460.443 523.443 455.301 523.146L406.502 520.32L520.038 684.756C522.962 688.99 520.039 694.783 514.895 694.945L417.026 698.044L556.387 921.421C559.146 925.843 556.003 931.434 550.858 931.255L35.3588 913.339C30.2143 913.16 27.1511 907.354 29.9705 903.126L161.324 706.141L68.8839 709.068C63.7401 709.23 60.4561 703.635 63.1064 699.223L178.518 507.118L107.276 502.993C102.135 502.695 99.1526 496.813 102.032 492.651L205.177 343.546L151.611 345.242C146.468 345.405 143.184 339.811 145.832 335.399L238.5 181.047L168.208 176.519C163.07 176.189 160.11 170.291 163.002 166.146L270.821 11.593Z" fill="#4B7287"/>
<path fill-rule="evenodd" clip-rule="evenodd" d="M862.665 175.945C865.386 172.772 870.379 173.006 872.857 176.421L971.319 312.133C974.523 316.55 971.26 322.669 965.835 322.415L908.947 319.756L1004.09 432.683C1007.59 436.836 1004.76 443.196 999.328 443.368L945.929 445.058L1049.23 585.756C1052.46 590.155 1049.22 596.296 1043.79 596.071L996.026 594.091L1107.62 726.452C1111.12 730.606 1108.29 736.967 1102.86 737.139L1005.59 740.219L1142.98 920.821C1146.28 925.159 1143.15 931.357 1137.72 931.235L621.015 919.59C615.584 919.468 612.648 913.133 616.082 908.947L747.803 748.381L656.006 751.288C650.576 751.459 647.344 745.29 650.576 740.924L766.301 584.572L695.919 581.655C690.491 581.43 687.66 575.038 691.165 570.918L794.135 449.865L741.53 451.53C736.101 451.702 732.868 445.535 736.098 441.168L828.677 316.003L759.252 312.758C753.827 312.504 751.025 306.102 754.544 301.999L862.665 175.945Z" fill="#4B7287"/>
<path fill-rule="evenodd" clip-rule="evenodd" d="M1706.65 181.695C1708.9 178.358 1713.62 177.852 1716.53 180.635L1860.08 317.88C1864.08 321.701 1861.78 328.451 1856.28 329.041L1785.68 336.622L1887.62 457.295C1891.18 461.521 1888.18 467.99 1882.65 467.99H1831.03L1936.52 611.648C1939.8 616.107 1936.36 622.358 1930.84 621.98L1870.51 617.851L2002.2 773.638C2005.77 777.863 2002.76 784.335 1997.23 784.335H1946.3L2052.04 904.845C2055.69 909.003 2052.81 915.528 2047.28 915.631L1414.06 927.503C1408.53 927.606 1405.4 921.194 1408.89 916.903L1516.7 784.335H1448.65C1443.12 784.335 1440.12 777.864 1443.69 773.638L1591.52 598.758L1503.73 592.75C1498.21 592.372 1495.65 585.711 1499.5 581.74L1609.82 467.99H1564.2C1558.67 467.99 1555.66 461.521 1559.23 457.295L1648.75 351.325L1601.59 356.389C1596.09 356.979 1592.41 350.871 1595.51 346.288L1706.65 181.695Z" fill="#4B7287"/>
<path fill-rule="evenodd" clip-rule="evenodd" d="M2161.19 402.578C2163.44 399.241 2168.16 398.735 2171.07 401.518L2267.85 494.044C2271.85 497.865 2269.55 504.615 2264.05 505.205L2218.27 510.121L2287.61 592.206C2291.18 596.431 2288.18 602.9 2282.65 602.9H2250.3L2322.37 701.042C2325.64 705.501 2322.21 711.752 2316.69 711.374L2278.18 708.739L2368.53 815.623C2372.1 819.848 2369.1 826.319 2363.57 826.319H2331.71L2403.68 908.338C2407.33 912.496 2404.45 919.02 2398.92 919.124L1959.93 927.354C1954.4 927.457 1951.27 921.046 1954.76 916.754L2028.3 826.319H1984.36C1978.83 826.319 1975.83 819.848 1979.4 815.623L2081.15 695.255L2023.25 691.292C2017.73 690.914 2015.17 684.253 2019.02 680.282L2094.07 602.9H2065.96C2060.43 602.9 2057.43 596.431 2061 592.206L2121.57 520.504L2092.34 523.642C2086.84 524.232 2083.17 518.124 2086.26 513.541L2161.19 402.578Z" fill="#3D667C"/>
<path fill-rule="evenodd" clip-rule="evenodd" d="M462.458 433.044C465.055 429.967 469.797 429.967 472.394 433.044L622.265 610.655C625.831 614.881 622.827 621.347 617.297 621.347H546.092L660.465 749.738C664.144 753.868 661.312 760.414 655.782 760.559L592.202 762.23L721.979 915.768C725.55 919.993 722.547 926.464 717.014 926.464H218.944C213.411 926.464 210.408 919.993 213.979 915.768L338.11 768.909L284.319 770.323C278.789 770.468 275.617 764.08 279.074 759.763L389.902 621.347H317.554C312.025 621.347 309.021 614.881 312.587 610.655L462.458 433.044Z" fill="#476982"/>
<path d="M700.662 1032.55C719.08 1032.55 737.319 1029.89 755.652 1028.4C757.557 1028.61 758.993 1029.18 760.982 1028.57C763.099 1027.92 764.833 1027.28 767.073 1027.28C775.839 1027.28 786.44 1029.61 794.714 1027.04C804.76 1023.92 816.8 1024.11 827.393 1024.11C831.14 1024.11 834.41 1024.37 837.934 1023.06C843.623 1020.94 849.939 1022.52 855.854 1021.77C861.204 1021.09 866.672 1019.18 871.901 1018.02C876.732 1016.94 882.297 1017.92 887.244 1017.78C900.561 1017.43 913.716 1017.7 927.067 1016.96C929.661 1016.82 939.98 1018.31 941.825 1015.67C943.373 1013.46 943.846 1009.22 944.987 1006.65C946.292 1003.71 945.048 995.862 941.825 993.99C937.543 991.502 930.14 992.466 925.193 992.466C914.175 992.466 906.798 982.974 897.903 977.345C888.862 971.624 884.161 971.026 874.422 969.786L873.95 969.726C869.933 969.214 865.267 969.059 861.359 967.909C855.07 966.058 849.823 961.721 843.615 959.88C830.963 956.129 816.415 954.749 803.382 953.023C795.087 951.924 786.607 952.613 778.375 954.019C774.782 954.633 771.571 956.532 767.951 957.008C762.867 957.678 758.006 956.046 753.076 955.133C750.119 954.585 749.054 956.993 746.986 958.649C744.42 960.703 741.794 960.535 738.728 960.876C734.856 961.307 728.756 970.187 725.317 972.481C722.156 974.59 719.648 976.97 715.889 978.107C712.121 979.247 707.851 979.323 704.41 981.389C699.004 984.636 693.536 988.061 687.895 990.884C684.051 992.807 652.126 1002.76 665.349 1012.51C671.096 1016.75 685.356 1014.16 686.958 1022.18C688.613 1030.46 692.225 1032.55 700.662 1032.55Z" fill="#EFEFEF"/>
<path d="M765.198 963.379V614.905V558.451C765.198 553.834 768.359 549.817 772.846 548.731L796.137 543.096C800.685 541.996 805.388 544.196 807.457 548.393L826.399 586.803" stroke="black" stroke-width="7" stroke-linecap="round"/>
<ellipse cx="835.767" cy="601.791" rx="31.8498" ry="31.8498" fill="#FFF8B8"/>
<path d="M783.742 610.615L805.783 568.983C805.99 568.591 806.322 568.28 806.725 568.097L825.622 559.534C825.927 559.396 826.262 559.337 826.595 559.361L877.895 563.161C879.919 563.311 880.459 566.031 878.646 566.943L786.409 613.338C784.668 614.213 782.831 612.337 783.742 610.615Z" fill="black"/>
<ellipse cx="851.067" cy="593.985" rx="6.5573" ry="6.5573" fill="white"/>
</svg>
